<?xml version="1.0" encoding="utf-8"?>
<!-- Generator: Adobe Illustrator 26.2.1, SVG Export Plug-In . SVG Version: 6.00 Build 0)  -->
<svg version="1.1" id="Layer_1" xmlns="http://www.w3.org/2000/svg" xmlns:xlink="http://www.w3.org/1999/xlink" x="0px" y="0px"
	 viewBox="0 0 200 200" style="enable-background:new 0 0 200 200;" xml:space="preserve">
<style type="text/css">
	.st0{fill:none;stroke:#000000;stroke-width:2;stroke-miterlimit:10;}
</style>
<rect x="102.14" y="62.68" class="st0" width="26.6" height="10.64"/>
<rect x="128.15" y="62.68" class="st0" width="26.6" height="10.64"/>
<rect x="154.16" y="62.68" class="st0" width="26.6" height="10.64"/>
<rect x="102.14" y="53.22" class="st0" width="26.6" height="10.64"/>
<rect x="74.88" y="62.68" class="st0" width="26.6" height="10.64"/>
<rect x="74.88" y="73.16" class="st0" width="26.6" height="10.64"/>
<rect x="74.88" y="53.22" class="st0" width="26.6" height="10.64"/>
<rect x="128.15" y="53.22" class="st0" width="26.6" height="10.64"/>
<rect x="154.16" y="53.22" class="st0" width="26.6" height="10.64"/>
<polygon class="st0" points="7.13,83.93 109.24,83.83 117.41,78.96 186.85,78.96 165.98,114.65 33.58,114.65 "/>
<polyline class="st0" points="23.51,82.77 23.51,44.94 64.31,44.94 64.31,82.69 "/>
<polyline class="st0" points="34.76,46.13 34.76,30.76 31.78,30.76 "/>
<line class="st0" x1="39.49" y1="46.13" x2="39.49" y2="37.81"/>
<circle class="st0" cx="31.21" cy="95.77" r="2.36"/>
<circle class="st0" cx="31.21" cy="53.22" r="2.36"/>
<circle class="st0" cx="47.76" cy="95.77" r="2.36"/>
<circle class="st0" cx="64.31" cy="95.77" r="2.36"/>
<circle class="st0" cx="80.86" cy="95.77" r="2.36"/>
<circle class="st0" cx="97.41" cy="95.77" r="2.36"/>
<rect x="40.67" y="50.85" class="st0" width="23.64" height="4.73"/>
<rect x="28.85" y="76.86" class="st0" width="4.73" height="7.09"/>
<line class="st0" x1="128.74" y1="73.31" x2="128.74" y2="78.48"/>
<line class="st0" x1="154.75" y1="73.31" x2="154.75" y2="78.96"/>
<line class="st0" x1="180.75" y1="73.31" x2="180.75" y2="78.48"/>
</svg>
