<?xml version="1.0" encoding="UTF-8"?>
<svg id="Layer_1" data-name="Layer 1" xmlns="http://www.w3.org/2000/svg" viewBox="0 0 100 100">
  <defs>
    <style>
      .cls-1 {
        fill: none;
        stroke: #000;
        stroke-miterlimit: 10;
        stroke-width: 2px;
      }
    </style>
  </defs>
  <rect class="cls-1" x="25.5" y="74.42968" width="47.28191" height="3.17565" transform="translate(98.28191 152.03502) rotate(180)"/>
  <path class="cls-1" d="M29.3663,24.67098c1.25056,4.09126,3.9184,10.81398,9.76214,17.22731,3.41837,3.75155,6.94314,6.32136,9.76214,8.03941"/>
  <path class="cls-1" d="M68.90056,24.64109c-1.25056,4.09126-3.9184,10.81398-9.76214,17.22731-3.41837,3.75155-6.94314,6.32136-9.76214,8.03941"/>
  <path class="cls-1" d="M29.30058,74.63226c1.25056-4.09126,3.9184-10.81398,9.76214-17.22731,3.41837-3.75155,6.94314-6.32136,9.76214-8.03941"/>
  <path class="cls-1" d="M68.83483,74.66215c-1.25056-4.09126-3.9184-10.81398-9.76214-17.22731-3.41837-3.75155-6.94314-6.32136-9.76214-8.03941"/>
  <rect class="cls-1" x="25.71809" y="21.50737" width="47.28191" height="3.17565" transform="translate(98.71809 46.19039) rotate(180)"/>
</svg>