<?xml version="1.0" encoding="utf-8"?>
<!-- Generator: Adobe Illustrator 26.2.1, SVG Export Plug-In . SVG Version: 6.00 Build 0)  -->
<svg version="1.1" id="Layer_1" xmlns="http://www.w3.org/2000/svg" xmlns:xlink="http://www.w3.org/1999/xlink" x="0px" y="0px"
	 viewBox="0 0 200 200" style="enable-background:new 0 0 200 200;" xml:space="preserve">
<style type="text/css">
	.st0{fill:none;stroke:#000000;stroke-width:2;stroke-miterlimit:10;}
</style>
<path class="st0" d="M85.12,92.12c0-11.37,8.95-20.59,19.98-20.59c8.99,0,16.6,6.12,19.11,14.53"/>
<path class="st0" d="M130.22,86.88c0-11.29,9.16-20.45,20.45-20.45c11.29,0,20.45,9.16,20.45,20.45"/>
<polygon class="st0" points="22.86,93.31 113.44,93.17 120.69,86.88 182.29,86.88 163.78,133.02 46.32,133.02 "/>
<polyline class="st0" points="37.39,92.12 37.39,58.57 73.59,58.57 73.59,92.06 "/>
<polyline class="st0" points="47.37,59.62 47.37,45.98 44.73,45.98 "/>
<line class="st0" x1="51.57" y1="59.62" x2="51.57" y2="52.24"/>
<circle class="st0" cx="44.23" cy="103.66" r="2.1"/>
<circle class="st0" cx="44.23" cy="65.91" r="2.1"/>
<circle class="st0" cx="58.91" cy="103.66" r="2.1"/>
<circle class="st0" cx="73.59" cy="103.66" r="2.1"/>
<circle class="st0" cx="88.27" cy="103.66" r="2.1"/>
<circle class="st0" cx="102.95" cy="103.66" r="2.1"/>
<rect x="52.62" y="63.81" class="st0" width="20.97" height="4.19"/>
<rect x="42.13" y="86.88" class="st0" width="4.19" height="6.29"/>
</svg>
