<?xml version="1.0" encoding="utf-8"?>
<!-- Generator: Adobe Illustrator 26.2.1, SVG Export Plug-In . SVG Version: 6.00 Build 0)  -->
<svg version="1.1" id="Layer_1" xmlns="http://www.w3.org/2000/svg" xmlns:xlink="http://www.w3.org/1999/xlink" x="0px" y="0px"
	 viewBox="0 0 200 200" style="enable-background:new 0 0 200 200;" xml:space="preserve">
<style type="text/css">
	.st0{fill:none;stroke:#000000;stroke-width:2;stroke-miterlimit:10;}
</style>
<line class="st0" x1="157.76" y1="70.1" x2="66.35" y2="70.1"/>
<polygon class="st0" points="15.61,93.31 106.2,93.17 113.45,86.88 175.05,86.88 156.53,133.02 39.08,133.02 "/>
<polyline class="st0" points="30.15,92.12 30.15,56.47 66.35,56.47 66.35,92.05 "/>
<polyline class="st0" points="40.13,55.42 40.13,41.79 37.48,41.79 "/>
<line class="st0" x1="44.32" y1="55.42" x2="44.32" y2="48.04"/>
<circle class="st0" cx="36.98" cy="103.66" r="2.1"/>
<circle class="st0" cx="36.98" cy="63.81" r="2.1"/>
<circle class="st0" cx="51.66" cy="103.66" r="2.1"/>
<circle class="st0" cx="66.35" cy="103.66" r="2.1"/>
<circle class="st0" cx="81.03" cy="103.66" r="2.1"/>
<circle class="st0" cx="118.78" cy="95.27" r="2.1"/>
<circle class="st0" cx="133.46" cy="95.27" r="2.1"/>
<circle class="st0" cx="148.14" cy="95.27" r="2.1"/>
<circle class="st0" cx="162.83" cy="95.27" r="2.1"/>
<circle class="st0" cx="95.71" cy="103.66" r="2.1"/>
<circle class="st0" cx="36.98" cy="114.15" r="2.1"/>
<circle class="st0" cx="51.66" cy="114.15" r="2.1"/>
<circle class="st0" cx="66.35" cy="114.15" r="2.1"/>
<circle class="st0" cx="81.03" cy="114.15" r="2.1"/>
<circle class="st0" cx="118.78" cy="105.76" r="2.1"/>
<circle class="st0" cx="133.46" cy="105.76" r="2.1"/>
<circle class="st0" cx="148.14" cy="105.76" r="2.1"/>
<circle class="st0" cx="95.71" cy="114.15" r="2.1"/>
<rect x="45.37" y="61.71" class="st0" width="20.97" height="4.19"/>
<rect x="129.27" y="74.3" class="st0" width="20.97" height="4.19"/>
<rect x="102" y="74.3" class="st0" width="20.97" height="4.19"/>
<rect x="74.74" y="74.3" class="st0" width="20.97" height="4.19"/>
<rect x="34.88" y="86.88" class="st0" width="4.19" height="6.29"/>
<polyline class="st0" points="66.35,88.98 105.5,88.98 112.49,82.59 162.83,82.59 "/>
<line class="st0" x1="156.53" y1="70.1" x2="164.92" y2="86.88"/>
</svg>
