<?xml version="1.0" encoding="utf-8"?>
<!-- Generator: Adobe Illustrator 26.2.1, SVG Export Plug-In . SVG Version: 6.00 Build 0)  -->
<svg version="1.1" id="Layer_1" xmlns="http://www.w3.org/2000/svg" xmlns:xlink="http://www.w3.org/1999/xlink" x="0px" y="0px"
	 viewBox="0 0 100 100" style="enable-background:new 0 0 100 100;" xml:space="preserve">
<style type="text/css">
	.st0{fill:none;stroke:#000000;stroke-miterlimit:10;}
	.st1{fill:none;stroke:#000000;stroke-width:2;stroke-miterlimit:10;}
</style>
<line class="st0" x1="-39.91" y1="158.5" x2="-83.5" y2="158.5"/>
<path class="st0" d="M-35.5,168.5"/>
<path class="st0" d="M195,44.47c4.29,1.51,8.14,2.17,11,2.48"/>
<path class="st0" d="M182.16,37.51"/>
<path class="st0" d="M170.41,23.86c1.35,2.43,4.11,6.87,8.88,11.24"/>
<polyline class="st0" points="179.29,35.1 178.36,35.1 178.36,47 178.36,49.22 "/>
<polyline class="st0" points="195,46.98 195,35.1 179.29,35.1 "/>
<polygon class="st0" points="148.31,49.27 181.01,49.22 183.63,46.95 205.87,46.95 199.19,63.61 156.78,63.61 "/>
<rect x="189.02" y="37.14" class="st0" width="5.85" height="1.75"/>
<polyline class="st0" points="186.97,35.1 186.97,29.25 184.34,29.25 184.34,30.78 186.97,30.82 "/>
<polygon class="st0" points="-107.69,169.57 -64.5,169.5 -61.04,166.5 -31.67,166.5 -40.5,188.5 -96.5,188.5 "/>
<polyline class="st0" points="-100.76,169 -100.76,152 -83.5,152 -83.5,168.97 "/>
<polyline class="st0" points="-96,151.5 -96,145 -97.26,145 "/>
<line class="st0" x1="-94" y1="151.5" x2="-94" y2="147.98"/>
<circle class="st0" cx="-97.5" cy="174.5" r="1"/>
<circle class="st0" cx="-97.5" cy="155.5" r="1"/>
<circle class="st0" cx="-90.5" cy="174.5" r="1"/>
<circle class="st0" cx="-83.5" cy="174.5" r="1"/>
<circle class="st0" cx="-76.5" cy="174.5" r="1"/>
<circle class="st0" cx="-58.5" cy="170.5" r="1"/>
<circle class="st0" cx="-51.5" cy="170.5" r="1"/>
<circle class="st0" cx="-44.5" cy="170.5" r="1"/>
<circle class="st0" cx="-37.5" cy="170.5" r="1"/>
<circle class="st0" cx="-69.5" cy="174.5" r="1"/>
<circle class="st0" cx="-97.5" cy="179.5" r="1"/>
<circle class="st0" cx="-90.5" cy="179.5" r="1"/>
<circle class="st0" cx="-83.5" cy="179.5" r="1"/>
<circle class="st0" cx="-76.5" cy="179.5" r="1"/>
<circle class="st0" cx="-58.5" cy="175.5" r="1"/>
<circle class="st0" cx="-51.5" cy="175.5" r="1"/>
<circle class="st0" cx="-44.5" cy="175.5" r="1"/>
<circle class="st0" cx="-69.5" cy="179.5" r="1"/>
<rect x="-93.5" y="154.5" class="st0" width="10" height="2"/>
<rect x="-53.5" y="160.5" class="st0" width="10" height="2"/>
<rect x="-66.5" y="160.5" class="st0" width="10" height="2"/>
<rect x="-79.5" y="160.5" class="st0" width="10" height="2"/>
<rect x="-98.5" y="166.5" class="st0" width="2" height="3"/>
<polygon class="st0" points="136.31,169.57 179.5,169.5 182.96,166.5 212.33,166.5 203.5,188.5 147.5,188.5 "/>
<polyline class="st0" points="159.24,169 159.24,153 176.5,153 176.5,168.97 "/>
<polyline class="st0" points="164,153.5 164,147 162.74,147 "/>
<line class="st0" x1="166" y1="153.5" x2="166" y2="149.98"/>
<circle class="st0" cx="146.5" cy="174.5" r="1"/>
<circle class="st0" cx="172.5" cy="157.5" r="2"/>
<circle class="st0" cx="153.5" cy="174.5" r="1"/>
<circle class="st0" cx="160.5" cy="174.5" r="1"/>
<circle class="st0" cx="167.5" cy="174.5" r="1"/>
<circle class="st0" cx="174.5" cy="174.5" r="1"/>
<rect x="161.5" y="163.5" class="st0" width="3" height="6"/>
<path class="st0" d="M38.5,169c0-4.69,3.69-8.5,8.25-8.5S55,164.31,55,169"/>
<path class="st0" d="M64.5,166.5c0-4.97,4.03-9,9-9s9,4.03,9,9"/>
<polygon class="st0" points="12.31,169.57 55.5,169.5 58.96,166.5 88.33,166.5 79.5,188.5 23.5,188.5 "/>
<polyline class="st0" points="19.24,169 19.24,153 36.5,153 36.5,168.97 "/>
<polyline class="st0" points="24,153.5 24,147 22.74,147 "/>
<line class="st0" x1="26" y1="153.5" x2="26" y2="149.98"/>
<circle class="st0" cx="22.5" cy="174.5" r="1"/>
<circle class="st0" cx="22.5" cy="156.5" r="1"/>
<circle class="st0" cx="29.5" cy="174.5" r="1"/>
<circle class="st0" cx="36.5" cy="174.5" r="1"/>
<circle class="st0" cx="43.5" cy="174.5" r="1"/>
<circle class="st0" cx="50.5" cy="174.5" r="1"/>
<rect x="26.5" y="155.5" class="st0" width="10" height="2"/>
<rect x="21.5" y="166.5" class="st0" width="2" height="3"/>
<rect x="-67.39" y="42.22" class="st0" width="12.68" height="5.07"/>
<rect x="-54.99" y="42.22" class="st0" width="12.68" height="5.07"/>
<rect x="-42.59" y="42.22" class="st0" width="12.68" height="5.07"/>
<rect x="-67.39" y="37.71" class="st0" width="12.68" height="5.07"/>
<rect x="-80.39" y="42.22" class="st0" width="12.68" height="5.07"/>
<rect x="-80.39" y="47.22" class="st0" width="12.68" height="5.07"/>
<rect x="-80.39" y="37.71" class="st0" width="12.68" height="5.07"/>
<rect x="-54.99" y="37.71" class="st0" width="12.68" height="5.07"/>
<rect x="-42.59" y="37.71" class="st0" width="12.68" height="5.07"/>
<polygon class="st0" points="-112.69,52.35 -64,52.3 -60.11,49.98 -27,49.98 -36.95,67 -100.08,67 "/>
<polyline class="st0" points="-104.88,51.8 -104.88,33.76 -85.42,33.76 -85.42,51.76 "/>
<polyline class="st0" points="-99.51,34.33 -99.51,27 -100.93,27 "/>
<line class="st0" x1="-97.26" y1="34.33" x2="-97.26" y2="30.36"/>
<circle class="st0" cx="-101.2" cy="58" r="1.13"/>
<circle class="st0" cx="-101.2" cy="37.71" r="1.13"/>
<circle class="st0" cx="-93.31" cy="58" r="1.13"/>
<circle class="st0" cx="-85.42" cy="58" r="1.13"/>
<circle class="st0" cx="-77.53" cy="58" r="1.13"/>
<circle class="st0" cx="-69.64" cy="58" r="1.13"/>
<rect x="-96.69" y="36.58" class="st0" width="11.27" height="2.25"/>
<rect x="-102.33" y="48.98" class="st0" width="2.25" height="3.38"/>
<polyline class="st0" points="61,44.97 61,31.72 47.73,31.72 47.73,45 47.73,46.39 "/>
<circle class="st0" cx="50.64" cy="35.58" r="1.16"/>
<path class="st0" d="M27.09,46.39c0-4.05,3.28-7.33,7.33-7.33c4.05,0,7.33,3.28,7.33,7.33"/>
<rect x="53.34" y="34.42" class="st0" width="7.72" height="2.32"/>
<rect x="49.48" y="42.14" class="st0" width="3.09" height="4.63"/>
<polygon class="st0" points="22.31,46.83 55.66,46.78 58.32,44.46 81,44.46 74.18,61.44 30.95,61.44 "/>
<polyline class="st1" points="26.7,54.05 55.71,54.05 58.56,51.19 78.3,51.19 "/>
<polyline class="st0" points="50.64,31.72 50.64,24 47.16,24 47.16,26.02 50.64,26.07 "/>
<polyline class="st0" points="178.36,41.57 161.7,41.57 161.7,49.23 "/>
<rect x="169.66" y="45.44" class="st0" width="2.27" height="3.79"/>
<path class="st0" d="M170.79,46.25"/>
<path class="st0" d="M170.34,23.41c0.56,3.79-2.6,6.92-8.16,8c-3.82,0.74-7.68,0.3-9.55,0.01v17.81"/>
<path class="st0" d="M170.79,33.79"/>
<line class="st0" x1="168.9" y1="34.08" x2="172.58" y2="34.08"/>
<polyline class="st0" points="152.62,31.12 170.79,41 170.79,24.52 "/>
<polyline class="st0" points="203.29,53.39 185.25,53.39 182.41,56.29 152.62,56.29 "/>
<polyline class="st0" points="-83.5,167.5 -64.83,167.5 -61.5,164.45 -37.5,164.45 "/>
<polyline class="st0" points="208,176.5 183.16,176.5 180.61,179 142,179 "/>
<line class="st0" x1="-54.7" y1="47.29" x2="-54.7" y2="49.75"/>
<line class="st0" x1="-42.31" y1="47.29" x2="-42.31" y2="49.98"/>
<line class="st0" x1="-29.91" y1="47.29" x2="-29.91" y2="49.75"/>
<path class="st0" d="M-40.5,158.5"/>
<line class="st0" x1="-40.5" y1="158.5" x2="-36.5" y2="166.5"/>
</svg>
