<?xml version="1.0" encoding="utf-8"?>
<!-- Generator: Adobe Illustrator 26.2.1, SVG Export Plug-In . SVG Version: 6.00 Build 0)  -->
<svg version="1.1" id="Layer_1" xmlns="http://www.w3.org/2000/svg" xmlns:xlink="http://www.w3.org/1999/xlink" x="0px" y="0px"
	 viewBox="0 0 200 200" style="enable-background:new 0 0 200 200;" xml:space="preserve">
<style type="text/css">
	.st0{fill:none;stroke:#000000;stroke-width:2;stroke-miterlimit:10;}
</style>
<path class="st0" d="M146.57,88.39c8.99,3.16,17.07,4.55,23.07,5.21"/>
<path class="st0" d="M95,45.16c2.83,5.11,8.61,14.4,18.63,23.58"/>
<polyline class="st0" points="113.62,68.74 111.67,68.74 111.67,93.71 111.67,98.36 "/>
<polyline class="st0" points="146.57,93.65 146.57,68.74 113.62,68.74 "/>
<polygon class="st0" points="48.64,98.47 117.23,98.36 122.72,93.6 169.37,93.6 155.35,128.54 66.41,128.54 "/>
<rect x="134.02" y="73.03" class="st0" width="12.26" height="3.68"/>
<polyline class="st0" points="129.73,68.74 129.73,56.48 124.21,56.48 124.21,59.69 129.73,59.77 "/>
<polyline class="st0" points="111.67,82.32 76.73,82.32 76.73,98.39 "/>
<rect x="93.41" y="90.42" class="st0" width="4.76" height="7.94"/>
<path class="st0" d="M94.84,44.22c1.16,7.95-5.45,14.51-17.12,16.77c-8,1.55-16.1,0.62-20.04,0.02v37.35"/>
<line class="st0" x1="91.82" y1="66.6" x2="99.54" y2="66.6"/>
<polyline class="st0" points="57.68,60.39 95.79,81.12 95.79,46.55 "/>
<polyline class="st0" points="163.95,107.1 126.11,107.1 120.16,113.19 57.68,113.19 "/>
</svg>
